<svg xmlns="http://www.w3.org/2000/svg" viewBox="0 0 32 32" fill="none">
  <!-- Green rounded background -->
  <rect width="32" height="32" rx="7" fill="#15705f"/>
  <!-- PackageCheck icon (Lucide), scaled to fit 6px padding on each side -->
  <g transform="translate(6,6) scale(0.833)" stroke="white" stroke-width="2" stroke-linecap="round" stroke-linejoin="round">
    <!-- box sides -->
    <path d="M21 10V8a2 2 0 0 0-1-1.73l-7-4a2 2 0 0 0-2 0l-7 4A2 2 0 0 0 2 8v8a2 2 0 0 0 1 1.73l7 4a2 2 0 0 0 2 .27"/>
    <!-- center crease lines -->
    <path d="M3.3 7 12 12l8.7-5"/>
    <path d="M12 22V12"/>
    <!-- check mark -->
    <path d="m16 16 2 2 4-4"/>
  </g>
</svg>
